<svg width="563" height="670" viewBox="0 0 563 670" fill="none" xmlns="http://www.w3.org/2000/svg">
<path d="M177.945 486.329C183.946 490.063 222.681 426.294 234.297 420.989C245.114 418.799 272.208 429.771 290.005 429.771C302.96 430.312 315.451 429.539 327.659 427.195C332.938 426.165 343.781 422.122 347.593 424.362C350.4 426.011 352.795 430.08 354.676 438.759C359.105 455.629 378.576 519.295 383.547 539.204C383.804 540.389 387.977 549.763 381.255 553.601C372.807 558.005 367.012 549.377 366.033 548.605C358.41 541.239 341.747 518.059 337.394 514.505C332.99 510.642 331.882 509.792 329.822 510.848C328.457 512.625 328.689 515.071 327.993 519.373C327.375 530.859 331.084 573.587 330.595 589.169C330.543 591.332 329.873 599.471 322.997 600.398C313.442 602.638 309.553 592.697 309.295 592.105C302.934 577.682 288.511 536.448 288.511 536.448C288.511 536.448 285.111 529.134 283.875 529.237C281.892 529.391 279.651 539.874 279.651 539.874C279.651 539.874 270.199 584.378 258.403 614.924C257.322 617.782 252.918 632.463 240.504 631.999C231.489 630.737 228.605 615.078 228.373 611.163C226.184 590.044 219.333 548.27 219.333 548.27C219.333 548.27 218.509 532.688 215.367 530.499C212.096 529.134 202.592 544.097 202.592 544.097C202.592 544.097 155.821 611.807 126.744 649.513C123.808 653.324 108.844 668.777 95.3743 662.802C83.0634 655.513 85.0723 633.673 86.154 629.733C94.4213 599.342 118.116 539.925 126.1 512.831C131.38 497.893 132.977 492.587 130.659 490.295C123.087 489.857 112.81 493.54 98.9542 498.743C93.7002 501.602 85.3041 504.641 79.3032 507.422C73.5598 509.843 31.6564 528.541 23.8012 515.844C14.8384 502.22 46.6458 476.491 55.8919 467.244C69.9799 453.878 79.0714 443.782 82.7801 440.665C86.257 436.879 98.7482 425.47 96.2242 418.568C94.3183 413.365 85.0465 413.004 75.1051 410.841C65.5758 409.038 45.4611 405.046 29.596 400.874C20.0409 397.448 14.1173 396.341 11.7221 388.074C11.1812 374.758 21.9468 371.848 24.6511 370.586C38.0694 364.405 120.511 329.842 120.511 329.842C120.511 329.842 134.393 323.557 141.45 325.721C149.743 328.374 151.932 342.384 155.435 348.437C163.445 364.92 181.241 380.759 191.827 395.723C200.583 406.051 171.97 481.101 178.022 486.329" stroke="#EEEAEA" stroke-width="2.5755" stroke-miterlimit="10"/>
<path d="M546.268 183.398C498.081 44.3984 346.255 -29.2094 207.229 19.0555C79.1756 63.4829 4.82091 196.147 31.9667 325.463C33.0484 330.665 33.8725 338.726 37.5813 340.735C44.4321 343.311 50.4588 340.452 54.3735 338.855C60.1426 336.512 71.9384 332.391 77.45 329.506C80.4118 327.987 85.8461 324.046 87.2884 320.595C88.8337 316.86 86.696 310.241 85.8204 306.765C68.5645 205.831 124.788 103.995 224.691 69.355C335.953 30.7483 457.439 89.6499 496.046 200.886C530.995 301.614 486.285 409.45 394.88 457.843C391.378 459.698 383.934 460.625 382.286 464.411C381.282 468.789 383.703 477.211 383.703 477.211L393.567 507.808C393.567 507.808 395.988 513.603 398.537 515.019C402.195 517.003 406.65 514.582 409.792 513.088C531.408 455.757 591.339 313.332 546.268 183.424" stroke="#EEEAEA" stroke-width="2.5755" stroke-miterlimit="10"/>
<g opacity="0.6">
<path d="M169.096 489.302C175.177 493.087 214.433 428.462 226.204 423.085C237.167 420.866 264.624 431.985 282.66 431.985C295.789 432.533 308.448 431.75 320.819 429.375C326.17 428.331 337.158 424.233 341.021 426.504C343.866 428.175 346.294 432.298 348.199 441.094C352.688 458.19 372.42 522.711 377.458 542.887C377.719 544.088 381.947 553.588 375.135 557.477C366.574 561.941 360.701 553.197 359.709 552.414C351.984 544.949 335.096 521.458 330.685 517.857C326.222 513.941 325.1 513.08 323.012 514.15C321.628 515.951 321.863 518.431 321.159 522.79C320.532 534.431 324.291 577.732 323.795 593.523C323.743 595.715 323.064 603.963 316.095 604.902C306.412 607.173 302.471 597.098 302.21 596.498C295.763 581.882 281.146 540.094 281.146 540.094C281.146 540.094 277.701 532.682 276.448 532.786C274.438 532.943 272.168 543.566 272.168 543.566C272.168 543.566 262.589 588.668 250.635 619.623C249.538 622.52 245.075 637.398 232.495 636.928C223.359 635.649 220.436 619.78 220.201 615.812C217.983 594.41 211.04 552.075 211.04 552.075C211.04 552.075 210.205 536.284 207.02 534.065C203.705 532.682 194.074 547.846 194.074 547.846C194.074 547.846 146.675 616.465 117.208 654.676C114.232 658.539 99.0678 674.2 85.4171 668.144C72.941 660.758 74.9768 638.625 76.073 634.631C84.4514 603.832 108.464 543.618 116.555 516.16C121.906 501.022 123.524 495.645 121.175 493.322C113.501 492.878 103.087 496.611 89.0451 501.883C83.7205 504.78 75.2117 507.86 69.1302 510.679C63.3098 513.132 20.844 532.081 12.8832 519.214C3.8002 505.407 36.0346 479.332 45.4047 469.962C59.6818 456.416 68.8953 446.184 72.6538 443.026C76.1774 439.189 88.8363 427.626 86.2784 420.631C84.347 415.359 74.9507 414.994 64.8758 412.801C55.2186 410.974 34.8339 406.929 18.7559 402.7C9.07254 399.229 3.06938 398.107 0.642012 389.728C0.0938975 376.234 11.004 373.285 13.7446 372.006C27.343 365.742 110.891 330.715 110.891 330.715C110.891 330.715 124.96 324.346 132.111 326.538C140.516 329.227 142.734 343.426 146.284 349.559C154.401 366.264 172.437 382.316 183.164 397.48C192.038 407.947 163.041 484.004 169.174 489.302" fill="#7F7F7F"/>
<path d="M542.363 182.305C493.529 41.4393 339.665 -33.1565 198.774 15.7562C69.0009 60.7799 -6.35182 195.225 21.1583 326.276C22.2545 331.549 23.0898 339.718 26.8483 341.754C33.7911 344.364 39.8986 341.467 43.8659 339.849C49.7125 337.473 61.6666 333.297 67.2522 330.374C70.2537 328.834 75.761 324.841 77.2226 321.343C78.7887 317.559 76.6223 310.851 75.7349 307.327C58.2474 205.038 115.225 101.836 216.47 66.7309C329.225 27.6059 452.342 87.2982 491.467 200.027C526.885 302.107 481.575 411.391 388.943 460.434C385.394 462.313 377.85 463.253 376.18 467.089C375.162 471.527 377.616 480.062 377.616 480.062L387.612 511.069C387.612 511.069 390.066 516.942 392.65 518.377C396.356 520.387 400.871 517.934 404.056 516.42C527.303 458.32 588.039 313.983 542.363 182.331" fill="#B3B3B3"/>
</g>
</svg>
