<svg width="492" height="425" viewBox="0 0 492 425" fill="none" xmlns="http://www.w3.org/2000/svg">
<path d="M249.804 188.428C252.145 189.882 267.249 165.029 271.779 162.964C276.003 162.107 286.562 166.376 293.494 166.376C298.544 166.59 303.411 166.284 308.17 165.366C310.221 164.968 314.46 163.392 315.944 164.264C317.046 164.907 317.964 166.483 318.714 169.881C320.443 176.461 328.033 201.283 329.977 209.041C330.069 209.5 331.706 213.158 329.089 214.658C325.799 216.372 323.534 213.005 323.152 212.699C320.183 209.822 313.679 200.793 311.98 199.4C310.266 197.901 309.823 197.564 309.027 197.977C308.491 198.666 308.583 199.63 308.308 201.298C308.078 205.782 309.517 222.432 309.318 228.507C309.287 229.349 309.042 232.516 306.349 232.884C302.615 233.756 301.115 229.884 301.008 229.655C298.529 224.038 292.897 207.955 292.897 207.955C292.897 207.955 291.566 205.108 291.092 205.139C290.311 205.2 289.439 209.286 289.439 209.286C289.439 209.286 285.751 226.64 281.16 238.546C280.731 239.663 279.017 245.386 274.182 245.203C270.662 244.713 269.545 238.607 269.453 237.077C268.596 228.844 265.933 212.561 265.933 212.561C265.933 212.561 265.612 206.486 264.388 205.629C263.102 205.093 259.414 210.939 259.414 210.939C259.414 210.939 241.173 237.337 229.848 252.043C228.701 253.528 222.87 259.557 217.621 257.231C212.831 254.385 213.612 245.876 214.025 244.331C217.254 232.486 226.482 209.317 229.588 198.758C231.639 192.927 232.266 190.861 231.363 189.974C228.41 189.805 224.416 191.244 218.998 193.264C216.948 194.381 213.673 195.559 211.332 196.646C209.097 197.595 192.753 204.879 189.693 199.936C186.188 194.626 198.599 184.587 202.211 180.991C207.705 175.788 211.255 171.839 212.693 170.63C214.04 169.146 218.922 164.708 217.927 162.015C217.177 159.995 213.581 159.842 209.694 159C205.975 158.296 198.14 156.735 191.958 155.113C188.239 153.766 185.928 153.353 184.979 150.124C184.765 144.936 188.958 143.789 190.014 143.299C195.248 140.881 227.385 127.414 227.385 127.414C227.385 127.414 232.802 124.966 235.541 125.807C238.77 126.833 239.627 132.296 240.989 134.668C244.111 141.095 251.059 147.263 255.175 153.108C258.588 157.133 247.432 186.393 249.804 188.428Z" fill="white"/>
<path d="M90.4365 422.72V403.361C90.4365 402.351 91.217 401.555 92.2423 401.555H96.114C102.449 401.555 107.561 406.713 107.561 413.002C107.561 419.292 102.449 424.525 96.114 424.525H92.2423C91.2323 424.525 90.4365 423.699 90.4365 422.72ZM94.0787 420.883H96.114C100.445 420.853 103.919 417.379 103.919 413.002C103.919 408.625 100.445 405.198 96.114 405.198H94.0787V420.883Z" fill="white"/>
<path d="M116.819 422.72V403.361C116.819 402.351 117.6 401.555 118.625 401.555H129.352C130.301 401.555 131.158 402.336 131.158 403.361C131.158 404.386 130.301 405.198 129.352 405.198H120.461V411.196H128.113C129.092 411.196 129.919 412.053 129.919 413.002C129.919 414.027 129.092 414.839 128.113 414.839H120.461V420.868H129.352C130.301 420.868 131.158 421.694 131.158 422.704C131.158 423.714 130.301 424.51 129.352 424.51H118.717L118.656 424.48L118.625 424.51C117.615 424.51 116.819 423.684 116.819 422.704V422.72Z" fill="white"/>
<path d="M139.973 418.817C140.57 418.098 141.641 417.991 142.36 418.587C143.799 419.766 146.293 421.143 148.634 421.112C150.272 421.112 151.756 420.623 152.736 419.904C153.715 419.184 154.144 418.358 154.144 417.547C154.144 417.118 154.052 416.828 153.853 416.491C153.654 416.17 153.363 415.833 152.873 415.512C151.925 414.884 150.318 414.333 148.374 413.966H148.313C146.767 413.675 145.329 413.277 144.074 412.68C142.835 412.084 141.748 411.273 141.029 410.125C140.539 409.344 140.279 408.411 140.279 407.431C140.279 405.457 141.396 403.759 142.911 402.642C144.457 401.524 146.461 400.897 148.589 400.897C151.741 400.897 154.067 402.443 155.735 403.514C156.485 404.034 156.715 405.09 156.194 405.84C155.705 406.62 154.649 406.85 153.868 406.33C152.2 405.212 150.593 404.233 148.589 404.233C147.119 404.233 145.803 404.692 144.916 405.35C144.028 406.008 143.676 406.727 143.676 407.416C143.676 407.814 143.737 408.074 143.906 408.334C144.074 408.594 144.365 408.885 144.793 409.191C145.65 409.788 147.119 410.308 148.895 410.63H148.956C150.624 410.951 152.169 411.38 153.486 412.007C154.832 412.665 156.011 413.522 156.76 414.731C157.25 415.512 157.541 416.506 157.541 417.516C157.541 419.613 156.363 421.419 154.725 422.597C153.118 423.775 150.991 424.464 148.65 424.464C145.099 424.433 142.115 422.658 140.248 421.189C139.529 420.592 139.422 419.521 139.988 418.786L139.973 418.817Z" fill="white"/>
<path d="M167.243 403.361C167.243 402.351 168.024 401.555 169.049 401.555C170.074 401.555 170.885 402.336 170.885 403.361V422.72C170.885 423.73 170.028 424.525 169.049 424.525C168.069 424.525 167.243 423.745 167.243 422.72V403.361Z" fill="white"/>
<path d="M180.434 412.742C180.434 406.146 185.882 400.897 192.539 400.897C195.324 400.897 197.987 401.846 200.022 403.453C200.879 404.08 201.002 405.289 200.39 406.115C199.762 406.896 198.553 407.064 197.727 406.406C196.319 405.32 194.513 404.631 192.539 404.631C190.183 404.631 188.117 405.519 186.632 407.034C185.087 408.503 184.168 410.507 184.168 412.742C184.168 414.976 185.087 416.904 186.632 418.389C188.101 419.904 190.183 420.776 192.539 420.776C194.177 420.776 195.722 420.286 197.038 419.536V415.037H192.34C191.33 415.037 190.473 414.18 190.473 413.17C190.473 412.16 191.33 411.334 192.34 411.334H198.875C199.931 411.334 200.772 412.114 200.772 413.17V420.424C200.772 420.653 200.711 420.791 200.68 420.975C200.65 421.036 200.65 421.067 200.619 421.143V421.174C200.527 421.464 200.329 421.725 199.992 421.954C197.926 423.561 195.34 424.51 192.539 424.51C185.882 424.51 180.434 419.291 180.434 412.726V412.742Z" fill="white"/>
<path d="M216.152 422.72C216.152 423.699 215.326 424.525 214.377 424.525C213.367 424.525 212.571 423.699 212.571 422.72V403.621C212.54 403.07 212.801 402.473 213.29 402.106C214.117 401.555 215.234 401.708 215.785 402.504L226.375 417.164V403.652C226.375 402.703 227.155 401.877 228.15 401.877C229.144 401.877 229.955 402.703 229.955 403.652V422.72C229.955 423.699 229.129 424.525 228.15 424.525C227.629 424.525 227.14 424.265 226.803 423.867C226.742 423.806 226.665 423.73 226.635 423.668L216.137 409.1V422.72H216.152Z" fill="white"/>
<path d="M258.282 417.761C258.879 419.567 260.577 420.883 262.582 420.883C265.076 420.883 267.112 418.848 267.112 416.384V403.361C267.112 402.351 267.938 401.555 268.948 401.555C269.958 401.555 270.754 402.336 270.754 403.361V416.384C270.754 420.883 267.081 424.525 262.582 424.525C258.97 424.525 255.894 422.169 254.839 418.879C254.517 417.899 255.068 416.874 255.986 416.614C256.966 416.292 257.991 416.813 258.282 417.761Z" fill="white"/>
<path d="M289.592 424.525C284.312 424.525 280.104 420.256 280.104 415.037V403.361C280.104 402.351 280.884 401.555 281.91 401.555C282.935 401.555 283.746 402.336 283.746 403.361V415.037C283.746 418.251 286.363 420.883 289.592 420.883C292.821 420.883 295.438 418.266 295.438 415.037V403.361C295.438 402.351 296.264 401.555 297.274 401.555C298.284 401.555 299.08 402.336 299.08 403.361V415.037C299.08 420.256 294.841 424.525 289.592 424.525ZM290.434 397.913C290.434 397.684 290.571 397.393 290.694 397.194L292.561 394.302C292.928 393.705 293.448 393.353 294.137 393.353C295.193 393.353 296.494 394.011 296.494 394.638C296.494 395.006 296.264 395.327 295.927 395.618L293.724 397.714C292.943 398.433 292.316 398.602 291.398 398.602C290.847 398.602 290.418 398.342 290.418 397.913H290.434Z" fill="white"/>
<path d="M313.434 422.72C313.434 423.699 312.608 424.525 311.659 424.525C310.649 424.525 309.853 423.699 309.853 422.72V403.621C309.823 403.07 310.083 402.473 310.573 402.106C311.399 401.555 312.516 401.708 313.067 402.504L323.657 417.164V403.652C323.657 402.703 324.437 401.877 325.432 401.877C326.427 401.877 327.238 402.703 327.238 403.652V422.72C327.238 423.699 326.411 424.525 325.432 424.525C324.912 424.525 324.407 424.265 324.085 423.867C324.024 423.806 323.963 423.73 323.917 423.668L313.419 409.1V422.72H313.434Z" fill="white"/>
<path d="M338.608 403.361C338.608 402.351 339.388 401.555 340.414 401.555C341.439 401.555 342.25 402.336 342.25 403.361V422.72C342.25 423.73 341.393 424.525 340.414 424.525C339.434 424.525 338.608 423.745 338.608 422.72V403.361Z" fill="white"/>
<path d="M370.913 404.417C372.948 406.59 374.218 409.467 374.218 412.711C374.218 415.955 372.933 418.878 370.913 421.005C368.97 423.133 366.093 424.51 363.078 424.51C360.063 424.51 357.048 423.133 355.044 421.005C353.008 418.878 351.799 415.955 351.799 412.711C351.799 409.467 353.008 406.575 355.044 404.417C357.048 402.259 359.925 400.912 363.078 400.912C366.23 400.912 368.985 402.259 370.913 404.417ZM370.5 412.711C370.5 410.477 369.612 408.411 368.266 406.972C366.888 405.503 365.052 404.646 363.078 404.646C360.981 404.646 359.145 405.503 357.768 406.972C356.39 408.411 355.533 410.477 355.533 412.711C355.533 414.945 356.39 417.011 357.768 418.419C359.145 419.888 360.981 420.776 363.078 420.776C365.052 420.776 366.888 419.888 368.266 418.419C369.612 417.011 370.5 414.945 370.5 412.711Z" fill="white"/>
<path d="M400.31 421.801C400.632 422.75 400.111 423.776 399.163 424.097C399.025 424.128 398.765 424.189 398.443 424.189H398.413C398.091 424.189 397.586 424.128 397.127 423.822C396.699 423.561 396.347 423.133 396.071 422.674C395.612 421.725 395.383 420.547 395.383 418.741C395.352 418.113 395.214 417.685 394.985 417.333C394.786 416.966 394.388 416.644 394.006 416.384C393.317 415.925 392.46 415.665 392.169 415.604H388.297V422.72C388.297 423.699 387.471 424.525 386.461 424.525C385.451 424.525 384.655 423.699 384.655 422.72V403.361C384.655 402.351 385.436 401.555 386.461 401.555H392.337C396.24 401.555 399.362 404.708 399.362 408.61C399.362 410.783 398.382 412.681 396.806 413.997C397.234 414.318 397.632 414.716 397.954 415.206C398.612 416.155 399.04 417.379 399.04 418.756C399.01 419.736 399.101 420.363 399.178 420.684C399.698 420.853 400.127 421.251 400.326 421.801H400.31ZM395.719 408.61C395.719 406.713 394.204 405.198 392.337 405.198H388.297V411.962H392.337C394.204 411.962 395.719 410.447 395.719 408.61Z" fill="white"/>
<path d="M393.409 70.3179C374.616 16.1294 315.424 -12.564 261.235 6.24357C211.301 23.5668 182.332 75.2915 192.906 125.7C193.335 127.72 193.656 130.873 195.095 131.653C197.758 132.663 200.114 131.546 201.645 130.919C203.894 130 208.5 128.393 210.643 127.276C211.791 126.68 213.918 125.149 214.484 123.803C215.096 122.349 214.254 119.762 213.902 118.416C207.184 79.0561 229.083 39.3596 268.045 25.8622C311.414 10.8192 358.778 33.774 373.836 77.1432C387.456 116.411 370.025 158.449 334.4 177.318C333.038 178.037 330.13 178.404 329.487 179.873C329.089 181.587 330.038 184.862 330.038 184.862L333.879 196.799C333.879 196.799 334.828 199.064 335.823 199.599C337.246 200.38 338.975 199.431 340.215 198.849C387.624 176.507 410.992 120.971 393.424 70.3179" fill="white"/>
<path d="M100.46 297.493C96.7261 297.631 93.2063 297.754 89.8702 297.815C86.5342 297.891 83.2899 297.937 80.1374 297.983C76.985 298.014 73.8631 298.044 70.7872 298.044H61.437C59.57 301.778 57.4887 306.109 55.1474 311.052C52.8213 315.98 50.3881 321.167 47.8477 326.585C45.3074 332.002 42.7671 337.481 40.2115 343.005C37.6711 348.529 35.2379 353.763 32.9578 358.706C30.6623 363.649 28.5811 368.117 26.7294 372.096C24.8624 376.09 23.3627 379.243 22.2149 381.6C21.4192 383.283 20.4551 384.829 19.3226 386.267C18.1749 387.69 16.92 388.93 15.5581 389.94C14.1961 390.965 12.8035 391.746 11.365 392.296C9.92648 392.847 8.61043 393.123 7.38617 393.123C5.67222 393.123 4.12659 392.679 2.76461 391.807C1.40263 390.935 0.713989 389.542 0.713989 387.629C0.713989 386.68 0.943526 385.563 1.37201 384.293C1.8005 383.007 2.41263 381.523 3.1931 379.84L41.145 297.723H35.4369C31.4887 297.723 28.8106 297.111 27.3721 295.856C25.9336 294.616 25.2144 293.147 25.2144 291.464C25.2144 289.781 26.1172 288.005 27.9077 286.368C29.6982 284.715 32.315 283.889 35.7429 283.889H48.4293C53.5099 273.421 58.6212 264.79 63.7324 257.981C68.859 251.186 73.8937 245.799 78.8366 241.851C83.7796 237.903 88.5848 235.164 93.2828 233.618C97.9809 232.088 102.465 231.307 106.765 231.307C108.77 231.307 110.698 231.705 112.519 232.516C114.355 233.312 115.962 234.521 117.355 236.143C118.763 237.75 119.895 239.785 120.752 242.234C121.609 244.682 122.038 247.559 122.038 250.849C122.038 254.139 121.594 257.476 120.752 261.286C120.538 262.311 120.109 263.168 119.451 263.872C118.809 264.561 118.089 265.142 117.309 265.571C116.513 266.015 115.717 266.321 114.937 266.504C114.141 266.688 113.468 266.78 112.902 266.78C111.463 266.78 110.147 266.428 108.923 265.739C107.698 265.051 107.102 263.964 107.102 262.495C107.102 261.546 107.163 260.674 107.27 259.863C107.377 259.052 107.423 258.241 107.423 257.445C107.423 254.369 106.872 252.165 105.77 250.849C104.653 249.533 103.169 248.875 101.302 248.875C99.0828 248.875 96.4812 249.855 93.5124 251.829C90.5436 253.818 87.5289 256.435 84.4835 259.74C81.4382 263.031 78.5153 266.78 75.7148 270.988C72.9296 275.197 70.6342 279.497 68.8437 283.889H93.8797C96.0986 283.889 98.1799 283.935 100.108 283.996C102.052 284.072 103.735 284.287 105.204 284.654C106.673 285.021 107.821 285.618 108.647 286.46C109.474 287.301 109.887 288.526 109.887 290.148C109.887 290.959 109.734 291.755 109.458 292.55C109.168 293.361 108.678 294.111 108.005 294.8C107.316 295.489 106.382 296.085 105.158 296.545C103.949 297.019 102.358 297.34 100.429 297.478" fill="white"/>
<path d="M197.605 328.222C196.319 329.477 194.59 331.191 192.447 333.395C190.29 335.598 187.841 337.97 185.087 340.526C182.332 343.082 179.394 345.668 176.287 348.254C173.165 350.856 169.982 353.212 166.723 355.339C163.463 357.467 160.25 359.196 157.097 360.543C153.945 361.905 150.976 362.578 148.175 362.578C145.666 362.578 143.523 362.027 141.733 360.925C139.942 359.823 138.443 358.4 137.264 356.64C136.086 354.88 135.214 352.906 134.632 350.657C134.05 348.422 133.775 346.127 133.775 343.801C133.775 342.255 133.882 340.74 134.096 339.241C134.311 337.741 134.678 336.333 135.183 335.002C132.949 338.077 130.424 341.245 127.608 344.505C124.777 347.749 121.731 350.718 118.472 353.396C115.212 356.074 111.815 358.262 108.265 359.992C104.714 361.706 101.118 362.563 97.4606 362.563C95.5936 362.563 93.4359 362.165 90.9568 361.415C88.4777 360.65 86.1363 359.379 83.9173 357.635C81.683 355.875 79.8314 353.61 78.3317 350.825C76.8319 348.055 76.0821 344.643 76.0821 340.618C76.0821 337.618 76.5259 334.022 77.4288 329.86C78.3163 325.697 79.6783 321.351 81.4994 316.852C83.3205 312.338 85.6619 307.9 88.493 303.492C91.324 299.1 94.6754 295.167 98.5471 291.694C102.419 288.22 106.826 285.404 111.769 283.246C116.712 281.088 122.236 280.002 128.312 280.002C131.464 280.002 134.219 280.415 136.576 281.211C138.948 282.022 140.952 282.879 142.59 283.843C144.457 285.006 146.094 286.292 147.533 287.684C148.757 287.026 149.996 286.399 151.297 285.817C152.368 285.297 153.501 284.853 154.679 284.44C155.858 284.042 156.883 283.843 157.74 283.843C160.464 283.843 162.683 284.608 164.397 286.154C166.126 287.684 166.983 289.383 166.983 291.204C166.983 291.709 166.937 292.107 166.876 292.413C166.509 293.805 165.958 295.565 165.208 297.677C164.458 299.804 163.616 302.161 162.683 304.762C161.749 307.364 160.8 310.073 159.836 312.888C158.872 315.704 157.985 318.474 157.204 321.167C156.408 323.876 155.766 326.416 155.261 328.804C154.756 331.176 154.496 333.211 154.496 334.894C154.496 337.083 154.863 338.904 155.582 340.327C156.301 341.75 157.51 342.469 159.24 342.469C160.311 342.469 161.581 342.133 163.05 341.429C164.519 340.74 166.111 339.791 167.825 338.628C169.554 337.45 171.329 336.119 173.135 334.619C174.956 333.104 176.746 331.604 178.46 330.059C182.47 326.401 186.739 322.223 191.254 317.541C192.401 316.592 193.519 316.117 194.59 316.117C196.028 316.117 197.222 316.837 198.201 318.26C199.165 319.683 199.655 321.29 199.655 323.05C199.655 325.085 198.982 326.814 197.62 328.192M123.139 299.911C119.773 299.911 116.513 300.784 113.361 302.544C110.208 304.288 107.408 306.599 104.974 309.445C102.541 312.307 100.613 315.505 99.1746 319.056C97.7361 322.606 97.0168 326.172 97.0168 329.753C97.0168 331.222 97.1086 332.737 97.2923 334.313C97.4759 335.889 97.8891 337.328 98.5318 338.659C99.1746 339.975 100.093 341.077 101.271 341.949C102.449 342.821 104.041 343.265 106.061 343.265C107.637 343.265 109.474 342.561 111.601 341.123C113.713 339.7 115.901 337.879 118.166 335.629C120.415 333.395 122.619 330.962 124.777 328.283C126.935 325.605 128.863 323.004 130.577 320.433C132.291 317.877 133.683 315.567 134.754 313.516C135.826 311.465 136.361 309.966 136.361 309.017C136.361 307.624 135.902 306.369 134.969 305.222C134.035 304.089 132.887 303.11 131.525 302.314C130.163 301.518 128.71 300.906 127.179 300.508C125.634 300.11 124.287 299.911 123.139 299.911Z" fill="white"/>
<path d="M200.512 289.582C201.721 287.547 203.129 286.077 204.705 285.19C206.281 284.318 207.888 283.874 209.541 283.874C212.265 283.874 214.606 284.761 216.581 286.567C218.555 288.358 219.534 290.653 219.534 293.423C219.458 294.081 219.366 294.724 219.259 295.397C219.151 296.055 218.922 296.728 218.555 297.371C217.545 299.269 216.734 300.876 216.091 302.207C215.448 303.508 214.851 304.747 214.316 305.88C213.78 307.012 213.26 308.129 212.755 309.231C212.25 310.333 211.653 311.649 210.934 313.179C210.077 315.016 209.113 317.005 208.041 319.163C206.97 321.321 205.945 323.54 204.981 325.804C204.017 328.069 203.19 330.304 202.502 332.507C201.828 334.696 201.476 336.716 201.476 338.537C201.476 340.511 201.951 341.812 202.93 342.439C203.909 343.066 205.271 343.372 207.062 343.372C209.067 343.372 211.163 342.944 213.352 342.056C215.54 341.169 217.744 340.036 219.963 338.659C222.181 337.267 224.37 335.675 226.512 333.885C228.67 332.094 230.69 330.273 232.588 328.452C234.485 326.631 236.245 324.871 237.852 323.188C239.459 321.504 251.502 303.6 252.589 302.284C254.027 300.906 255.451 300.202 256.889 300.202C258.19 300.202 259.246 300.784 260.057 301.962C260.883 303.14 261.281 304.625 261.281 306.461C261.281 308.145 260.868 309.935 260.057 311.848C259.23 313.746 247.172 331.941 245.32 333.624C241.662 337.435 237.928 341.077 234.149 344.551C230.353 348.025 226.466 351.101 222.488 353.763C218.509 356.426 214.515 358.584 210.505 360.191C206.496 361.798 202.44 362.609 198.354 362.609C192.555 362.609 187.994 361.094 184.658 358.048C181.322 355.018 179.654 350.29 179.654 343.847C179.654 340.48 180.113 337.19 181.047 333.961C181.98 330.747 183.097 327.626 184.383 324.58C185.668 321.55 187.03 318.612 188.469 315.796C189.892 312.98 191.116 310.287 192.126 307.731C192.493 306.783 193.105 305.313 194.008 303.339C194.896 301.365 195.86 299.345 196.855 297.295C198.002 294.892 199.227 292.321 200.512 289.612" fill="white"/>
<path d="M268.856 298.044C273.233 300.386 277.135 303.064 280.578 306.063C284.022 309.063 286.944 312.23 289.332 315.551C291.734 318.887 293.555 322.269 294.81 325.712C296.05 329.156 296.677 332.522 296.677 335.812C296.677 339.975 295.514 343.74 293.188 347.06C290.847 350.396 287.817 353.212 284.052 355.508C280.288 357.818 276.003 359.578 271.167 360.787C266.331 361.996 261.434 362.593 256.506 362.593C252.772 362.593 249.161 362.18 245.641 361.323C242.137 360.481 238.923 359.18 236.031 357.436C233.123 355.676 230.644 353.426 228.563 350.687C226.482 347.933 225.013 344.658 224.156 340.863C224.018 340.281 223.941 339.791 223.941 339.439C223.941 337.45 224.615 335.751 225.977 334.328C227.339 332.905 228.854 332.186 230.491 332.186C231.272 332.186 232.159 332.339 233.123 332.629C234.087 332.936 234.822 333.578 235.327 334.604C236.26 336.363 237.576 337.94 239.26 339.332C240.928 340.725 242.825 341.903 244.891 342.898C246.973 343.877 249.176 344.658 251.502 345.209C253.828 345.76 256.109 346.035 258.328 346.035C260.546 346.035 262.827 345.821 264.938 345.377C267.05 344.933 268.917 344.245 270.524 343.28C272.131 342.332 273.401 341.123 274.335 339.669C275.268 338.2 275.727 336.409 275.727 334.282C275.727 330.548 274.901 327.105 273.248 323.968C271.595 320.831 269.468 317.908 266.851 315.245C264.235 312.567 261.25 310.088 257.945 307.777C254.609 305.466 254.027 305.971 250.737 303.844C250.37 303.63 249.834 302.987 249.13 301.916C248.411 300.86 248.059 299.774 248.059 298.672C248.059 297.799 248.273 297.096 248.702 296.591C249.85 295.045 251.166 293.484 252.681 291.862C254.18 290.255 255.802 288.771 257.516 287.424C259.23 286.062 261.097 284.975 263.102 284.118C265.107 283.277 267.188 282.864 269.33 282.864C270.907 282.864 270.861 282.588 272.223 283.032C273.585 283.476 274.732 284.042 275.666 284.731L276.599 285.434C277.395 286.031 277.456 286.445 277.456 287.179C277.456 288.204 277.196 289.184 276.707 290.148C276.202 291.097 275.544 292.015 274.717 292.887C273.891 293.775 272.957 294.647 271.917 295.519C270.876 296.392 269.851 297.233 268.856 298.044Z" fill="white"/>
<path d="M364.287 290.148C364.287 292.413 364.042 294.923 363.537 297.662C363.032 300.401 362.205 302.988 361.058 305.406C359.91 307.823 358.441 309.843 356.65 311.435C354.86 313.042 352.641 313.853 349.993 313.853C348.555 313.853 347.637 313.639 347.254 313.195C346.856 312.751 346.673 311.986 346.673 310.899C346.673 310.241 346.688 309.262 346.719 307.976C346.749 306.706 346.78 305.467 346.78 304.288C346.78 302.972 346.596 301.855 346.229 300.952C345.877 300.034 344.974 299.575 343.536 299.575C341.898 299.575 340.046 300.218 337.996 301.503C335.945 302.789 333.91 304.441 331.875 306.492C329.839 308.543 327.85 310.869 325.906 313.455C323.963 316.057 322.234 318.689 320.688 321.367C319.142 324.045 317.933 326.631 317.03 329.095C316.128 331.589 315.684 333.716 315.684 335.476C315.684 338.032 316.556 340.052 318.316 341.521C320.061 342.99 322.463 343.709 325.463 343.709C328.691 343.709 332.135 343.158 335.777 342.072C339.434 340.97 343.061 339.578 346.688 337.894C350.3 336.211 353.804 334.374 357.171 332.4C360.537 330.411 363.598 328.544 366.368 326.738C369.122 324.948 371.433 323.402 373.3 322.132C375.167 320.846 376.376 320.066 376.958 319.775C378.105 319.178 379.177 318.888 380.187 318.888C381.044 318.888 381.778 319.087 382.39 319.5C382.987 319.898 383.477 320.372 383.844 320.923C384.196 321.474 384.456 322.071 384.594 322.683C384.732 323.31 384.824 323.831 384.824 324.274C384.824 324.932 384.747 325.728 384.594 326.631C384.456 327.549 383.921 328.59 382.987 329.768C382.62 330.212 381.457 331.329 379.483 333.12C377.509 334.925 374.968 337.022 371.862 339.44C368.74 341.858 365.159 344.429 361.104 347.183C357.064 349.922 352.733 352.448 348.096 354.697C343.474 356.977 338.7 358.86 333.757 360.359C328.814 361.859 323.932 362.609 319.142 362.609C315.485 362.609 312.241 362.027 309.409 360.849C306.578 359.686 304.206 358.094 302.263 356.074C300.319 354.054 298.85 351.698 297.856 349.004C296.861 346.311 296.341 343.449 296.341 340.435C296.341 337.144 297.106 333.349 298.59 329.08C300.09 324.795 302.171 320.418 304.819 315.965C307.466 311.496 310.588 307.104 314.169 302.789C317.75 298.473 321.637 294.632 325.83 291.265C330.023 287.899 334.4 285.19 338.929 283.139C343.49 281.089 348.081 280.063 352.748 280.063C354.324 280.063 355.809 280.247 357.201 280.614C358.594 280.982 359.818 281.548 360.859 282.313C361.899 283.078 362.726 284.119 363.338 285.435C363.95 286.751 364.256 288.327 364.256 290.164" fill="white"/>
<path d="M489.91 328.222C488.625 329.477 486.896 331.191 484.753 333.395C482.595 335.598 480.132 337.97 477.392 340.526C474.638 343.082 471.7 345.668 468.578 348.254C465.456 350.856 462.273 353.212 458.998 355.339C455.738 357.467 452.54 359.196 449.388 360.543C446.235 361.905 443.251 362.578 440.466 362.578C437.956 362.578 435.814 362.027 434.008 360.925C432.233 359.823 430.733 358.4 429.555 356.64C428.376 354.88 427.489 352.906 426.923 350.657C426.341 348.422 426.066 346.127 426.066 343.801C426.066 342.255 426.173 340.74 426.387 339.241C426.601 337.741 426.968 336.333 427.458 335.002C425.239 338.077 422.714 341.245 419.868 344.505C417.037 347.749 413.991 350.718 410.747 353.396C407.488 356.074 404.075 358.262 400.54 359.992C396.974 361.706 393.393 362.563 389.736 362.563C387.869 362.563 385.696 362.165 383.232 361.415C380.753 360.65 378.411 359.379 376.193 357.635C373.974 355.875 372.107 353.61 370.607 350.825C369.107 348.055 368.357 344.643 368.357 340.618C368.357 337.618 368.801 334.022 369.704 329.86C370.592 325.697 371.954 321.351 373.79 316.852C375.611 312.338 377.937 307.9 380.768 303.492C383.599 299.1 386.951 295.167 390.822 291.694C394.694 288.22 399.101 285.404 404.044 283.246C408.987 281.088 414.496 280.002 420.587 280.002C423.739 280.002 426.494 280.415 428.866 281.211C431.223 282.022 433.243 282.879 434.88 283.843C436.747 285.006 438.385 286.292 439.823 287.684C441.032 287.026 442.287 286.399 443.588 285.817C444.659 285.297 445.776 284.853 446.97 284.44C448.148 284.042 449.158 283.843 450.03 283.843C452.754 283.843 454.973 284.608 456.687 286.154C458.401 287.684 459.258 289.383 459.258 291.204C459.258 291.709 459.228 292.107 459.151 292.413C458.799 293.805 458.248 295.565 457.483 297.677C456.733 299.804 455.891 302.161 454.958 304.762C454.024 307.364 453.076 310.073 452.096 312.888C451.132 315.704 450.245 318.474 449.479 321.167C448.684 323.876 448.026 326.416 447.536 328.804C447.031 331.176 446.786 333.211 446.786 334.894C446.786 337.083 447.138 338.904 447.857 340.327C448.577 341.75 449.801 342.469 451.515 342.469C452.601 342.469 453.856 342.133 455.325 341.429C456.794 340.74 458.386 339.791 460.1 338.628C461.814 337.45 463.604 336.119 465.425 334.619C467.246 333.104 469.022 331.604 470.736 330.059C474.745 326.401 479.015 322.223 483.529 317.541C484.677 316.592 485.779 316.117 486.85 316.117C488.288 316.117 489.482 316.837 490.461 318.26C491.425 319.683 491.915 321.29 491.915 323.05C491.915 325.085 491.226 326.814 489.864 328.192M415.445 299.911C412.078 299.911 408.819 300.784 405.666 302.544C402.514 304.288 399.729 306.599 397.296 309.445C394.862 312.307 392.919 315.505 391.496 319.056C390.057 322.606 389.338 326.172 389.338 329.753C389.338 331.222 389.43 332.737 389.613 334.313C389.782 335.889 390.21 337.328 390.853 338.659C391.496 339.975 392.414 341.077 393.592 341.949C394.771 342.821 396.362 343.265 398.382 343.265C399.943 343.265 401.795 342.561 403.907 341.123C406.018 339.7 408.207 337.879 410.472 335.629C412.721 333.395 414.925 330.962 417.067 328.283C419.21 325.605 421.153 323.004 422.867 320.433C424.596 317.877 425.989 315.567 427.06 313.516C428.132 311.465 428.667 309.966 428.667 309.017C428.667 307.624 428.193 306.369 427.275 305.222C426.341 304.089 425.193 303.11 423.831 302.314C422.469 301.518 421.015 300.906 419.47 300.508C417.924 300.11 416.593 299.911 415.445 299.911Z" fill="white"/>
</svg>
